# ProBuilder 5.1.1
# https://unity3d.com/unity/features/worldbuilding/probuilder
# 09.06.2024 23:33:37

mtllib ./SegmentPlatfomOne.mtl
o SegmentPlatfomOne

g SegmentPlatfomOne
v 0.5000001 -0.05 0.8660254
v 0.3420202 -0.05 0.9396926
v 0.5000001 -1.695298E-09 0.8660254
v 0.3420202 -1.695298E-09 0.9396926
v 0.003420234 -0.05 0.009396911
v 0.004999995 -0.05 0.008660257
v 0.003420234 -1.695298E-09 0.009396911
v 0.004999995 -1.695298E-09 0.008660257
v 0.6427876 -0.05 0.7660444
v 0.6427876 -1.695298E-09 0.7660444
v 0.006427884 -0.05 0.007660449
v 0.006427884 -1.695298E-09 0.007660449
v 0.7660444 -0.05 0.6427876
v 0.7660444 -1.695298E-09 0.6427876
v 0.007660449 -0.05 0.006427884
v 0.007660449 -1.695298E-09 0.006427884
v 0.8660254 -0.05 0.5000001
v 0.8660254 -1.695298E-09 0.5000001
v 0.008660257 -0.05 0.004999995
v 0.008660257 -1.695298E-09 0.004999995
v 0.9396926 -0.05 0.3420202
v 0.9396926 -1.695298E-09 0.3420202
v 0.009396911 -0.05 0.003420234
v 0.009396911 -1.695298E-09 0.003420234
v 0.9848077 -0.05 0.1736483
v 0.9848077 -1.695298E-09 0.1736483
v 0.009848058 -0.05 0.001736462
v 0.009848058 -1.695298E-09 0.001736462
v 0.5000001 0.05 0.8660254
v 0.3420202 0.05 0.9396926
v 0.003420234 0.05 0.009396911
v 0.004999995 0.05 0.008660257
v 0.6427876 0.05 0.7660444
v 0.006427884 0.05 0.007660449
v 0.7660444 0.05 0.6427876
v 0.007660449 0.05 0.006427884
v 0.8660254 0.05 0.5000001
v 0.008660257 0.05 0.004999995
v 0.9396926 0.05 0.3420202
v 0.009396911 0.05 0.003420234
v 0.9848077 0.05 0.1736483
v 0.009848058 0.05 0.001736462

vt 0.08715586 -0.05
vt -0.08715567 -0.05
vt 0.08715586 -1.695298E-09
vt -0.08715567 -1.695298E-09
vt 0.000871516 -0.05
vt -0.0008715576 -0.05
vt 0.000871516 -1.695298E-09
vt -0.0008715576 -1.695298E-09
vt 0.08715586 0.05
vt -0.08715567 0.05
vt 0.000871516 0.05
vt -0.0008715576 0.05
vt 0.3420202 0.9396926
vt 0.5000001 0.8660254
vt 0.003420234 0.009396911
vt 0.004999995 0.008660257
vt -0.5000001 0.8660254
vt -0.3420202 0.9396926
vt -0.004999995 0.008660257
vt -0.003420234 0.009396911
vt 0.6427876 0.7660444
vt 0.006427884 0.007660449
vt -0.6427876 0.7660444
vt -0.006427884 0.007660449
vt 0.7660444 0.6427876
vt 0.007660449 0.006427884
vt -0.7660444 0.6427876
vt -0.007660449 0.006427884
vt 0.8660254 0.5000001
vt 0.008660257 0.004999995
vt -0.8660254 0.5000001
vt -0.008660257 0.004999995
vt 0.9396926 0.3420202
vt 0.009396911 0.003420234
vt -0.9396926 0.3420202
vt -0.009396911 0.003420234
vt 0.9848077 0.1736483
vt 0.009848058 0.001736462
vt -0.9848077 0.1736483
vt -0.009848058 0.001736462
vt 1 0.05
vt 0.009999996 0.05
vt 1 -0.05
vt 0.009999996 -0.05
vt -0.009999977 0.05
vt -1 0.05
vt -0.009999977 -0.05
vt -1 -0.05

vn 0.5 0 0.8660254
vn 0.4226182 0 0.9063078
vn -0.4226178 0 -0.9063081
vn -0.4999977 0 -0.8660267
vn 0.6427876 0 0.7660444
vn -0.6427857 0 -0.766046
vn 0.7660444 0 0.6427876
vn -0.766046 0 -0.6427857
vn 0.8660254 0 0.5000001
vn -0.8660267 0 -0.4999977
vn 0.9396926 0 0.3420201
vn -0.9396944 0 -0.3420153
vn 0.9659259 0 0.258819
vn -0.9659284 0 -0.2588096
vn 0 -1 0
vn 0 1 0
vn -0.9396926 0 0.3420201
vn 0.1736483 0 -0.9848077

usemtl m_PlatformAqumarine
f 3/3/1 4/4/2 2/2/2 1/1/1
f 7/7/3 8/8/4 6/6/4 5/5/3
f 10/3/5 3/4/1 1/2/1 9/1/5
f 8/7/4 12/8/6 11/6/6 6/5/4
f 14/3/7 10/4/5 9/2/5 13/1/7
f 12/7/6 16/8/8 15/6/8 11/5/6
f 18/3/9 14/4/7 13/2/7 17/1/9
f 16/7/8 20/8/10 19/6/10 15/5/8
f 22/3/11 18/4/9 17/2/9 21/1/11
f 20/7/10 24/8/12 23/6/12 19/5/10
f 26/3/13 22/4/11 21/2/11 25/1/13
f 24/7/12 28/8/14 27/6/14 23/5/12
f 29/9/1 30/10/2 4/4/2 3/3/1
f 31/11/3 32/12/4 8/8/4 7/7/3
f 33/9/5 29/10/1 3/4/1 10/3/5
f 32/11/4 34/12/6 12/8/6 8/7/4
f 35/9/7 33/10/5 10/4/5 14/3/7
f 34/11/6 36/12/8 16/8/8 12/7/6
f 37/9/9 35/10/7 14/4/7 18/3/9
f 36/11/8 38/12/10 20/8/10 16/7/8
f 39/9/11 37/10/9 18/4/9 22/3/11
f 38/11/10 40/12/12 24/8/12 20/7/10
f 41/9/13 39/10/11 22/4/11 26/3/13
f 40/11/12 42/12/14 28/8/14 24/7/12
f 5/15/15 6/16/15 1/14/15 2/13/15
f 32/19/16 31/20/16 30/18/16 29/17/16
f 6/16/15 11/22/15 9/21/15 1/14/15
f 34/24/16 32/19/16 29/17/16 33/23/16
f 11/22/15 15/26/15 13/25/15 9/21/15
f 36/28/16 34/24/16 33/23/16 35/27/16
f 15/26/15 19/30/15 17/29/15 13/25/15
f 38/32/16 36/28/16 35/27/16 37/31/16
f 19/30/15 23/34/15 21/33/15 17/29/15
f 40/36/16 38/32/16 37/31/16 39/35/16
f 23/34/15 27/38/15 25/37/15 21/33/15
f 42/40/16 40/36/16 39/35/16 41/39/16
f 5/44/17 2/43/17 30/41/17 31/42/17
f 25/48/18 27/47/18 42/45/18 41/46/18

