# ProBuilder 5.1.1
# https://unity3d.com/unity/features/worldbuilding/probuilder
# 09.06.2024 15:54:59

mtllib ./Ball.mtl
o Ball

g Ball
v 0.03942983 0.06379882 0
v 0.05203354 0.05265349 0.01204665
v 0.03254164 0.06470013 0.0194919
v 0.06067628 0.0375 0.02317627
v 0.0440839 0.05161432 0.03189941
v 0.02317627 0.06067628 0.0375
v 0.06470013 0.0194919 0.03254164
v 0.05161432 0.03189941 0.0440839
v 0.06379882 0 0.03942983
v 0.05265349 0.01204665 0.05203354
v 0.0375 0.02317627 0.06067628
v 0.03189941 0.0440839 0.05161432
v 0.01204665 0.05203354 0.05265349
v 0.0194919 0.03254164 0.06470013
v 0 0.03942983 0.06379882
v 0.02049499 0.07214538 0
v 0.01218449 0.07132924 0.01971492
v 0 0.075 0
v 0 0.06379882 0.03942983
v -0.01204665 0.05203354 0.05265349
v -0.02317627 0.06067628 0.0375
v -0.01218449 0.07132924 0.01971492
v -0.02049499 0.07214538 0
v -0.03254164 0.06470013 0.0194919
v -0.03942983 0.06379882 0
v 0.03254164 0.06470013 -0.0194919
v 0.01218449 0.07132924 -0.01971492
v 0.02317627 0.06067628 -0.0375
v -0.01218449 0.07132924 -0.01971492
v -0.03254164 0.06470013 -0.0194919
v -0.02317627 0.06067628 -0.0375
v 0 0.06379882 -0.03942983
v 0.01204665 0.05203354 -0.05265349
v -0.01204665 0.05203354 -0.05265349
v 0 0.03942983 -0.06379882
v 0.05203354 0.05265349 -0.01204665
v 0.0440839 0.05161432 -0.03189941
v 0.06067628 0.0375 -0.02317627
v 0.03189941 0.0440839 -0.05161432
v 0.0194919 0.03254164 -0.06470013
v 0.0375 0.02317627 -0.06067628
v 0.05161432 0.03189941 -0.0440839
v 0.06470013 0.0194919 -0.03254164
v 0.05265349 0.01204665 -0.05203354
v 0.06379882 0 -0.03942983
v 0.06379882 0.03942983 0
v 0.07132924 0.01971492 -0.01218449
v 0.07214538 0 -0.02049499
v 0.075 0 0
v 0.07132924 0.01971492 0.01218449
v 0.07214538 0 0.02049499
v -0.05203354 0.05265349 0.01204665
v -0.0440839 0.05161432 0.03189941
v -0.06067628 0.0375 0.02317627
v -0.03189941 0.0440839 0.05161432
v -0.0194919 0.03254164 0.06470013
v -0.0375 0.02317627 0.06067628
v -0.05161432 0.03189941 0.0440839
v -0.06470013 0.0194919 0.03254164
v -0.05265349 0.01204665 0.05203354
v -0.06379882 0 0.03942983
v 0 0.02049499 0.07214538
v 0.01971492 0.01218449 0.07132924
v 0 0 0.075
v 0.03942983 0 0.06379882
v 0.05265349 -0.01204665 0.05203354
v 0.0375 -0.02317627 0.06067628
v 0.01971492 -0.01218449 0.07132924
v 0 -0.02049499 0.07214538
v 0.0194919 -0.03254164 0.06470013
v 0 -0.03942983 0.06379882
v 0.06470013 -0.0194919 0.03254164
v 0.07132924 -0.01971492 0.01218449
v 0.06067628 -0.0375 0.02317627
v 0.07132924 -0.01971492 -0.01218449
v 0.06470013 -0.0194919 -0.03254164
v 0.06067628 -0.0375 -0.02317627
v 0.06379882 -0.03942983 0
v 0.05203354 -0.05265349 0.01204665
v 0.05203354 -0.05265349 -0.01204665
v 0.03942983 -0.06379882 0
v 0.05265349 -0.01204665 -0.05203354
v 0.03942983 0 -0.06379882
v 0.0375 -0.02317627 -0.06067628
v 0.01971492 0.01218449 -0.07132924
v 0 0.02049499 -0.07214538
v 0 0 -0.075
v 0.01971492 -0.01218449 -0.07132924
v 0.0194919 -0.03254164 -0.06470013
v 0 -0.02049499 -0.07214538
v 0 -0.03942983 -0.06379882
v -0.0194919 0.03254164 -0.06470013
v -0.03189941 0.0440839 -0.05161432
v -0.0375 0.02317627 -0.06067628
v -0.0440839 0.05161432 -0.03189941
v -0.05203354 0.05265349 -0.01204665
v -0.06067628 0.0375 -0.02317627
v -0.05161432 0.03189941 -0.0440839
v -0.05265349 0.01204665 -0.05203354
v -0.06470013 0.0194919 -0.03254164
v -0.06379882 0 -0.03942983
v -0.03942983 -0.06379882 0
v -0.05203354 -0.05265349 0.01204665
v -0.03254164 -0.06470013 0.0194919
v -0.06067628 -0.0375 0.02317627
v -0.0440839 -0.05161432 0.03189941
v -0.02317627 -0.06067628 0.0375
v -0.06470013 -0.0194919 0.03254164
v -0.05161432 -0.03189941 0.0440839
v -0.05265349 -0.01204665 0.05203354
v -0.0375 -0.02317627 0.06067628
v -0.03189941 -0.0440839 0.05161432
v -0.01204665 -0.05203354 0.05265349
v -0.0194919 -0.03254164 0.06470013
v -0.02049499 -0.07214538 0
v -0.01218449 -0.07132924 0.01971492
v 0 -0.075 0
v 0 -0.06379882 0.03942983
v 0.01204665 -0.05203354 0.05265349
v 0.02317627 -0.06067628 0.0375
v 0.01218449 -0.07132924 0.01971492
v 0.02049499 -0.07214538 0
v 0.03254164 -0.06470013 0.0194919
v -0.03254164 -0.06470013 -0.0194919
v -0.01218449 -0.07132924 -0.01971492
v -0.02317627 -0.06067628 -0.0375
v 0.01218449 -0.07132924 -0.01971492
v 0.03254164 -0.06470013 -0.0194919
v 0.02317627 -0.06067628 -0.0375
v 0 -0.06379882 -0.03942983
v -0.01204665 -0.05203354 -0.05265349
v 0.01204665 -0.05203354 -0.05265349
v -0.05203354 -0.05265349 -0.01204665
v -0.0440839 -0.05161432 -0.03189941
v -0.06067628 -0.0375 -0.02317627
v -0.03189941 -0.0440839 -0.05161432
v -0.0194919 -0.03254164 -0.06470013
v -0.0375 -0.02317627 -0.06067628
v -0.05161432 -0.03189941 -0.0440839
v -0.06470013 -0.0194919 -0.03254164
v -0.05265349 -0.01204665 -0.05203354
v -0.06379882 -0.03942983 0
v -0.07132924 -0.01971492 -0.01218449
v -0.07214538 0 -0.02049499
v -0.075 0 0
v -0.07132924 -0.01971492 0.01218449
v -0.07214538 0 0.02049499
v -0.01971492 -0.01218449 0.07132924
v -0.03942983 0 0.06379882
v -0.01971492 0.01218449 0.07132924
v 0.0440839 -0.05161432 0.03189941
v 0.03189941 -0.0440839 0.05161432
v 0.05161432 -0.03189941 0.0440839
v 0.03189941 -0.0440839 -0.05161432
v 0.0440839 -0.05161432 -0.03189941
v 0.05161432 -0.03189941 -0.0440839
v -0.03942983 0 -0.06379882
v -0.01971492 -0.01218449 -0.07132924
v -0.01971492 0.01218449 -0.07132924
v -0.07132924 0.01971492 0.01218449
v -0.07132924 0.01971492 -0.01218449
v -0.06379882 0.03942983 0

vt -0.03942983 -4.361231E-10
vt -0.05203354 0.01204665
vt -0.03254164 0.0194919
vt -0.01204665 0.05265349
vt -0.02317627 0.0375
vt -0.03189941 0.05161432
vt -0.0440839 0.03189941
vt 0.05161432 0.03189941
vt 0.05265349 0.01204665
vt 0.0375 0.02317627
vt 0.03189941 0.0440839
vt 0.0440839 0.05161432
vt 0.0194919 0.03254164
vt 0.01204665 0.05203354
vt 4.970196E-10 0.03942983
vt -0.02049499 -4.931795E-10
vt -0.01218449 0.01971492
vt 6.152321E-10 -5.126934E-10
vt -0.01204665 0.05203354
vt 0.01204665 0.05265349
vt 0.02317627 0.0375
vt 0.01218449 0.01971492
vt 0.02049499 -4.931795E-10
vt 0.03254164 0.0194919
vt 0.03942983 -4.361231E-10
vt -0.03254164 -0.0194919
vt -0.01218449 -0.01971492
vt -0.02317627 -0.0375
vt 0.01218449 -0.01971492
vt 0.03254164 -0.0194919
vt 0.02317627 -0.0375
vt 5.233477E-10 -0.03942983
vt -0.01204665 -0.05265349
vt 0.01204665 -0.05265349
vt -0.05203354 -0.01204665
vt -0.0440839 -0.03189941
vt 0.03189941 0.05161432
vt -0.03189941 -0.05161432
vt -0.01949189 0.03254164
vt -0.03189941 0.0440839
vt -0.0375 0.02317628
vt -0.05161432 0.03189941
vt -0.0440839 0.05161432
vt 0.0440839 0.03189941
vt -0.05265349 0.01204665
vt 0.05203354 0.01204665
vt 5.620429E-10 0.02049499
vt 0.01971492 0.01218449
vt 0.05265349 -0.01204665
vt 0.0375 -0.02317627
vt 0.01971492 -0.01218449
vt 5.620429E-10 -0.02049499
vt 0.0194919 -0.03254164
vt 0.05203354 -0.01204665
vt -0.05265349 -0.01204665
vt -0.0375 -0.02317627
vt -0.01971492 0.01218449
vt -0.01971492 -0.01218449
vt -0.01949189 -0.03254164
vt 0.03189941 -0.05161432
vt 0.0440839 -0.03189941
vt -0.05161432 -0.03189941
vt -0.03189941 -0.0440839
vt -0.0440839 -0.05161432
vt -0.01204665 -0.05203354
vt 0.01204665 -0.05203354
vt 0.03189941 -0.0440839
vt 0.05161432 -0.03189941
vt 0.0440839 -0.05161432

vn 0.525731 0.8506509 -3.024078E-09
vn 0.6868449 0.7104939 0.1531091
vn 0.4391093 0.8636029 0.2477357
vn 0.809017 0.4999999 0.309017
vn 0.5877345 0.6812236 0.4364661
vn 0.309017 0.809017 0.4999999
vn 0.8636029 0.2477357 0.4391093
vn 0.6812236 0.436466 0.5877345
vn 0.8506509 -3.024078E-09 0.525731
vn 0.7104939 0.1531091 0.6868451
vn 0.4999999 0.309017 0.809017
vn 0.436466 0.5877345 0.6812236
vn 0.1531091 0.6868451 0.7104939
vn 0.2477357 0.4391093 0.8636029
vn 0 0.525731 0.8506509
vn 0.2860003 0.9582295 -5.040394E-09
vn 0.1512685 0.9509744 0.2697509
vn 0 1 -2.521931E-09
vn 0 0.8574854 0.5145084
vn -0.1531091 0.686845 0.7104939
vn -0.309017 0.809017 0.4999999
vn -0.1512685 0.9509744 0.2697508
vn -0.2860003 0.9582295 2.520197E-09
vn -0.4391093 0.8636029 0.2477357
vn -0.525731 0.8506509 0
vn 0.4391093 0.8636029 -0.2477357
vn 0.1512685 0.9509744 -0.2697509
vn 0.3090171 0.8090171 -0.4999999
vn -0.1512685 0.9509744 -0.2697509
vn -0.4391093 0.8636029 -0.2477357
vn -0.309017 0.809017 -0.4999999
vn 0 0.8574854 -0.5145083
vn 0.1531091 0.686845 -0.7104939
vn -0.1531091 0.6868449 -0.7104939
vn -3.024078E-09 0.525731 -0.8506509
vn 0.6868451 0.7104939 -0.1531091
vn 0.5877345 0.6812236 -0.436466
vn 0.809017 0.4999999 -0.309017
vn 0.436466 0.5877345 -0.6812236
vn 0.2477357 0.4391093 -0.8636029
vn 0.4999999 0.309017 -0.809017
vn 0.6812236 0.436466 -0.5877345
vn 0.8636029 0.2477357 -0.4391093
vn 0.7104939 0.1531091 -0.6868451
vn 0.8506509 -3.024078E-09 -0.525731
vn 0.8574854 0.5145082 0
vn 0.9509744 0.2697509 -0.1512685
vn 0.9582295 -2.520197E-09 -0.2860003
vn 1 -2.521931E-09 0
vn 0.9509744 0.2697509 0.1512686
vn 0.9582295 5.040394E-09 0.2860003
vn -0.6868449 0.7104939 0.1531091
vn -0.5877345 0.6812236 0.436466
vn -0.809017 0.4999999 0.309017
vn -0.436466 0.5877345 0.6812236
vn -0.2477357 0.4391093 0.8636029
vn -0.4999999 0.309017 0.809017
vn -0.6812236 0.436466 0.5877345
vn -0.8636029 0.2477357 0.4391093
vn -0.7104939 0.1531091 0.6868449
vn -0.8506509 0 0.525731
vn -2.520197E-09 0.2860004 0.9582295
vn 0.2697509 0.1512685 0.9509744
vn -2.521931E-09 0 1
vn 0.5145084 0 0.8574854
vn 0.7104939 -0.1531091 0.6868449
vn 0.4999999 -0.309017 0.809017
vn 0.2697508 -0.1512685 0.9509744
vn 5.040394E-09 -0.2860003 0.9582295
vn 0.2477357 -0.4391093 0.8636029
vn 0 -0.525731 0.8506509
vn 0.8636029 -0.2477357 0.4391093
vn 0.9509744 -0.2697509 0.1512685
vn 0.809017 -0.4999999 0.309017
vn 0.9509744 -0.2697509 -0.1512685
vn 0.8636029 -0.2477357 -0.4391093
vn 0.809017 -0.4999999 -0.309017
vn 0.8574854 -0.5145083 0
vn 0.6868451 -0.7104939 0.1531091
vn 0.6868451 -0.7104939 -0.1531091
vn 0.525731 -0.8506509 0
vn 0.7104939 -0.1531091 -0.686845
vn 0.5145082 0 -0.8574854
vn 0.4999999 -0.309017 -0.809017
vn 0.2697509 0.1512685 -0.9509744
vn -2.520197E-09 0.2860004 -0.9582295
vn -2.521931E-09 0 -1
vn 0.2697509 -0.1512686 -0.9509744
vn 0.2477357 -0.4391093 -0.8636029
vn 5.040394E-09 -0.2860003 -0.9582295
vn 0 -0.525731 -0.8506509
vn -0.2477357 0.4391093 -0.8636029
vn -0.4364661 0.5877345 -0.6812236
vn -0.4999999 0.309017 -0.809017
vn -0.5877345 0.6812236 -0.436466
vn -0.6868449 0.7104939 -0.1531091
vn -0.809017 0.4999999 -0.309017
vn -0.6812236 0.436466 -0.5877345
vn -0.7104939 0.1531091 -0.6868449
vn -0.8636029 0.2477357 -0.4391093
vn -0.8506509 0 -0.525731
vn -0.525731 -0.8506509 -3.024078E-09
vn -0.6868449 -0.7104939 0.1531091
vn -0.4391093 -0.8636029 0.2477357
vn -0.809017 -0.4999999 0.309017
vn -0.5877345 -0.6812236 0.4364661
vn -0.309017 -0.809017 0.4999999
vn -0.8636029 -0.2477357 0.4391093
vn -0.6812236 -0.436466 0.5877345
vn -0.7104939 -0.1531091 0.6868451
vn -0.4999999 -0.309017 0.809017
vn -0.436466 -0.5877345 0.6812236
vn -0.1531091 -0.6868451 0.7104939
vn -0.2477357 -0.4391093 0.8636029
vn -0.2860003 -0.9582295 -5.040394E-09
vn -0.1512685 -0.9509744 0.2697509
vn 0 -1 -2.521931E-09
vn 0 -0.8574854 0.5145084
vn 0.1531091 -0.686845 0.7104939
vn 0.309017 -0.809017 0.4999999
vn 0.1512685 -0.9509744 0.2697508
vn 0.2860003 -0.9582295 2.520197E-09
vn 0.4391093 -0.8636029 0.2477357
vn -0.4391093 -0.8636029 -0.2477357
vn -0.1512685 -0.9509744 -0.2697509
vn -0.3090171 -0.8090171 -0.4999999
vn 0.1512685 -0.9509744 -0.2697509
vn 0.4391093 -0.8636029 -0.2477357
vn 0.309017 -0.809017 -0.4999999
vn 0 -0.8574854 -0.5145083
vn -0.1531091 -0.686845 -0.7104939
vn 0.1531091 -0.6868449 -0.7104939
vn -0.6868451 -0.7104939 -0.1531091
vn -0.5877345 -0.6812236 -0.436466
vn -0.809017 -0.4999999 -0.309017
vn -0.436466 -0.5877345 -0.6812236
vn -0.2477357 -0.4391093 -0.8636029
vn -0.4999999 -0.309017 -0.809017
vn -0.6812236 -0.436466 -0.5877345
vn -0.8636029 -0.2477357 -0.4391093
vn -0.7104939 -0.1531091 -0.6868451
vn -0.8574854 -0.5145082 0
vn -0.9509744 -0.2697509 -0.1512685
vn -0.9582295 2.520197E-09 -0.2860003
vn -1 2.521931E-09 0
vn -0.9509744 -0.2697509 0.1512686
vn -0.9582295 -5.040394E-09 0.2860003
vn -0.2697509 -0.1512685 0.9509744
vn -0.5145084 0 0.8574854
vn -0.2697508 0.1512685 0.9509744
vn 0.5877345 -0.6812236 0.436466
vn 0.436466 -0.5877345 0.6812236
vn 0.6812236 -0.436466 0.5877345
vn 0.4364661 -0.5877345 -0.6812236
vn 0.5877345 -0.6812236 -0.436466
vn 0.6812236 -0.436466 -0.5877345
vn -0.5145082 0 -0.8574854
vn -0.2697509 -0.1512685 -0.9509744
vn -0.2697509 0.1512686 -0.9509744
vn -0.9509744 0.2697509 0.1512685
vn -0.9509744 0.2697509 -0.1512685
vn -0.8574854 0.5145083 0

usemtl m_Ball
f 3/3/3 2/2/2 1/1/1
f 5/6/5 4/5/4 2/4/2
f 3/3/3 5/7/5 2/2/2
f 6/5/6 5/7/5 3/3/3
f 8/7/8 7/3/7 4/5/4
f 10/2/10 9/1/9 7/3/7
f 8/7/8 10/2/10 7/3/7
f 11/10/11 10/9/10 8/8/8
f 5/6/5 8/7/8 4/5/4
f 12/11/12 11/10/11 8/8/8
f 5/12/5 12/11/12 8/8/8
f 6/5/6 12/6/12 5/7/5
f 13/4/13 12/6/12 6/5/6
f 14/13/14 11/10/11 12/11/12
f 13/14/13 14/13/14 12/11/12
f 15/15/15 14/13/14 13/14/13
f 16/16/16 3/3/3 1/1/1
f 17/17/17 6/5/6 3/3/3
f 16/16/16 17/17/17 3/3/3
f 18/18/18 17/17/17 16/16/16
f 19/15/19 13/4/13 6/5/6
f 20/19/20 15/15/15 13/14/13
f 19/15/19 20/20/20 13/4/13
f 21/21/21 20/20/20 19/15/19
f 17/17/17 19/15/19 6/5/6
f 22/22/22 21/21/21 19/15/19
f 17/17/17 22/22/22 19/15/19
f 18/18/18 22/22/22 17/17/17
f 23/23/23 22/22/22 18/18/18
f 24/24/24 21/21/21 22/22/22
f 23/23/23 24/24/24 22/22/22
f 25/25/25 24/24/24 23/23/23
f 26/26/26 16/16/16 1/1/1
f 27/27/27 18/18/18 16/16/16
f 26/26/26 27/27/27 16/16/16
f 28/28/28 27/27/27 26/26/26
f 29/29/29 23/23/23 18/18/18
f 30/30/30 25/25/25 23/23/23
f 29/29/29 30/30/30 23/23/23
f 31/31/31 30/30/30 29/29/29
f 27/27/27 29/29/29 18/18/18
f 32/32/32 31/31/31 29/29/29
f 27/27/27 32/32/32 29/29/29
f 28/28/28 32/32/32 27/27/27
f 33/33/33 32/32/32 28/28/28
f 34/34/34 31/31/31 32/32/32
f 33/33/33 34/34/34 32/32/32
f 35/15/35 34/14/34 33/19/33
f 36/35/36 26/26/26 1/1/1
f 37/36/37 28/28/28 26/26/26
f 36/35/36 37/36/37 26/26/26
f 38/21/38 37/37/37 36/20/36
f 39/38/39 33/33/33 28/28/28
f 40/39/40 35/15/35 33/19/33
f 39/40/39 40/39/40 33/19/33
f 41/41/41 40/39/40 39/40/39
f 37/36/37 39/38/39 28/28/28
f 42/42/42 41/41/41 39/40/39
f 37/43/37 42/42/42 39/40/39
f 38/21/38 42/44/42 37/37/37
f 43/24/43 42/44/42 38/21/38
f 44/45/44 41/41/41 42/42/42
f 43/24/43 44/46/44 42/44/42
f 45/25/45 44/46/44 43/24/43
f 2/2/2 36/35/36 1/1/1
f 46/15/46 38/21/38 36/20/36
f 2/4/2 46/15/46 36/20/36
f 4/5/4 46/15/46 2/4/2
f 47/22/47 43/24/43 38/21/38
f 48/23/48 45/25/45 43/24/43
f 47/22/47 48/23/48 43/24/43
f 49/18/49 48/23/48 47/22/47
f 46/15/46 47/22/47 38/21/38
f 50/17/50 49/18/49 47/22/47
f 46/15/46 50/17/50 47/22/47
f 4/5/4 50/17/50 46/15/46
f 7/3/7 50/17/50 4/5/4
f 51/16/51 49/18/49 50/17/50
f 7/3/7 51/16/51 50/17/50
f 9/1/9 51/16/51 7/3/7
f 52/46/52 24/24/24 25/25/25
f 53/44/53 21/21/21 24/24/24
f 52/46/52 53/44/53 24/24/24
f 54/21/54 53/37/53 52/20/52
f 55/37/55 20/20/20 21/21/21
f 56/39/56 15/15/15 20/19/20
f 55/40/55 56/39/56 20/19/20
f 57/41/57 56/39/56 55/40/55
f 53/44/53 55/37/55 21/21/21
f 58/42/58 57/41/57 55/40/55
f 53/43/53 58/42/58 55/40/55
f 54/21/54 58/44/58 53/37/53
f 59/24/59 58/44/58 54/21/54
f 60/45/60 57/41/57 58/42/58
f 59/24/59 60/46/60 58/44/58
f 61/25/61 60/46/60 59/24/59
f 62/47/62 14/13/14 15/15/15
f 63/48/63 11/10/11 14/13/14
f 62/47/62 63/48/63 14/13/14
f 64/18/64 63/48/63 62/47/62
f 65/25/65 10/9/10 11/10/11
f 66/35/66 9/1/9 10/2/10
f 65/25/65 66/49/66 10/9/10
f 67/50/67 66/49/66 65/25/65
f 63/48/63 65/25/65 11/10/11
f 68/51/68 67/50/67 65/25/65
f 63/48/63 68/51/68 65/25/65
f 64/18/64 68/51/68 63/48/63
f 69/52/69 68/51/68 64/18/64
f 70/53/70 67/50/67 68/51/68
f 69/52/69 70/53/70 68/51/68
f 71/32/71 70/53/70 69/52/69
f 72/26/72 51/16/51 9/1/9
f 73/27/73 49/18/49 51/16/51
f 72/26/72 73/27/73 51/16/51
f 74/28/74 73/27/73 72/26/72
f 75/29/75 48/23/48 49/18/49
f 76/30/76 45/25/45 48/23/48
f 75/29/75 76/30/76 48/23/48
f 77/31/77 76/30/76 75/29/75
f 73/27/73 75/29/75 49/18/49
f 78/32/78 77/31/77 75/29/75
f 73/27/73 78/32/78 75/29/75
f 74/28/74 78/32/78 73/27/73
f 79/33/79 78/32/78 74/28/74
f 80/34/80 77/31/77 78/32/78
f 79/33/79 80/34/80 78/32/78
f 81/25/81 80/54/80 79/46/79
f 82/54/82 44/46/44 45/25/45
f 83/1/83 41/41/41 44/45/44
f 82/55/82 83/1/83 44/45/44
f 84/56/84 83/1/83 82/55/82
f 85/57/85 40/39/40 41/41/41
f 86/47/86 35/15/35 40/39/40
f 85/57/85 86/47/86 40/39/40
f 87/18/87 86/47/86 85/57/85
f 83/1/83 85/57/85 41/41/41
f 88/58/88 87/18/87 85/57/85
f 83/1/83 88/58/88 85/57/85
f 84/56/84 88/58/88 83/1/83
f 89/59/89 88/58/88 84/56/84
f 90/52/90 87/18/87 88/58/88
f 89/59/89 90/52/90 88/58/88
f 91/32/91 90/52/90 89/59/89
f 92/13/92 34/14/34 35/15/35
f 93/60/93 31/31/31 34/34/34
f 92/13/92 93/11/93 34/14/34
f 94/10/94 93/11/93 92/13/92
f 95/61/95 30/30/30 31/31/31
f 96/54/96 25/25/25 30/30/30
f 95/61/95 96/54/96 30/30/30
f 97/5/97 96/4/96 95/6/95
f 93/60/93 95/61/95 31/31/31
f 98/7/98 97/5/97 95/6/95
f 93/11/93 98/8/98 95/12/95
f 94/10/94 98/8/98 93/11/93
f 99/9/99 98/8/98 94/10/94
f 100/3/100 97/5/97 98/7/98
f 99/2/99 100/3/100 98/7/98
f 101/1/101 100/3/100 99/2/99
f 104/3/104 103/2/103 102/1/102
f 106/60/106 105/31/105 103/34/103
f 104/3/104 106/7/106 103/2/103
f 107/5/107 106/7/106 104/3/104
f 109/61/109 108/30/108 105/31/105
f 110/54/110 61/25/61 108/30/108
f 109/61/109 110/54/110 108/30/108
f 111/56/111 110/55/110 109/62/109
f 106/60/106 109/61/109 105/31/105
f 112/63/112 111/56/111 109/62/109
f 106/64/106 112/63/112 109/62/109
f 107/5/107 112/6/112 106/7/106
f 113/4/113 112/6/112 107/5/107
f 114/59/114 111/56/111 112/63/112
f 113/65/113 114/59/114 112/63/112
f 71/32/71 114/59/114 113/65/113
f 115/16/115 104/3/104 102/1/102
f 116/17/116 107/5/107 104/3/104
f 115/16/115 116/17/116 104/3/104
f 117/18/117 116/17/116 115/16/115
f 118/15/118 113/4/113 107/5/107
f 119/66/119 71/32/71 113/65/113
f 118/15/118 119/20/119 113/4/113
f 120/21/120 119/20/119 118/15/118
f 116/17/116 118/15/118 107/5/107
f 121/22/121 120/21/120 118/15/118
f 116/17/116 121/22/121 118/15/118
f 117/18/117 121/22/121 116/17/116
f 122/23/122 121/22/121 117/18/117
f 123/24/123 120/21/120 121/22/121
f 122/23/122 123/24/123 121/22/121
f 81/25/81 123/24/123 122/23/122
f 124/26/124 115/16/115 102/1/102
f 125/27/125 117/18/117 115/16/115
f 124/26/124 125/27/125 115/16/115
f 126/28/126 125/27/125 124/26/124
f 127/29/127 122/23/122 117/18/117
f 128/30/128 81/25/81 122/23/122
f 127/29/127 128/30/128 122/23/122
f 129/31/129 128/30/128 127/29/127
f 125/27/125 127/29/127 117/18/117
f 130/32/130 129/31/129 127/29/127
f 125/27/125 130/32/130 127/29/127
f 126/28/126 130/32/130 125/27/125
f 131/33/131 130/32/130 126/28/126
f 132/34/132 129/31/129 130/32/130
f 131/33/131 132/34/132 130/32/130
f 91/32/91 132/65/132 131/66/131
f 133/35/133 124/26/124 102/1/102
f 134/36/134 126/28/126 124/26/124
f 133/35/133 134/36/134 124/26/124
f 135/28/135 134/38/134 133/33/133
f 136/38/136 131/33/131 126/28/126
f 137/53/137 91/32/91 131/66/131
f 136/67/136 137/53/137 131/66/131
f 138/50/138 137/53/137 136/67/136
f 134/36/134 136/38/136 126/28/126
f 139/68/139 138/50/138 136/67/136
f 134/69/134 139/68/139 136/67/136
f 135/28/135 139/36/139 134/38/134
f 140/26/140 139/36/139 135/28/135
f 141/49/141 138/50/138 139/68/139
f 140/26/140 141/35/141 139/36/139
f 101/1/101 141/35/141 140/26/140
f 103/2/103 133/35/133 102/1/102
f 142/32/142 135/28/135 133/33/133
f 103/34/103 142/32/142 133/33/133
f 105/31/105 142/32/142 103/34/103
f 143/27/143 140/26/140 135/28/135
f 144/16/144 101/1/101 140/26/140
f 143/27/143 144/16/144 140/26/140
f 145/18/145 144/16/144 143/27/143
f 142/32/142 143/27/143 135/28/135
f 146/29/146 145/18/145 143/27/143
f 142/32/142 146/29/146 143/27/143
f 105/31/105 146/29/146 142/32/142
f 108/30/108 146/29/146 105/31/105
f 147/23/147 145/18/145 146/29/146
f 108/30/108 147/23/147 146/29/146
f 61/25/61 147/23/147 108/30/108
f 69/52/69 114/59/114 71/32/71
f 148/58/148 111/56/111 114/59/114
f 69/52/69 148/58/148 114/59/114
f 64/18/64 148/58/148 69/52/69
f 149/1/149 110/55/110 111/56/111
f 60/46/60 61/25/61 110/54/110
f 149/1/149 60/45/60 110/55/110
f 57/41/57 60/45/60 149/1/149
f 148/58/148 149/1/149 111/56/111
f 150/57/150 57/41/57 149/1/149
f 148/58/148 150/57/150 149/1/149
f 64/18/64 150/57/150 148/58/148
f 62/47/62 150/57/150 64/18/64
f 56/39/56 57/41/57 150/57/150
f 62/47/62 56/39/56 150/57/150
f 15/15/15 56/39/56 62/47/62
f 79/46/79 123/24/123 81/25/81
f 151/44/151 120/21/120 123/24/123
f 79/46/79 151/44/151 123/24/123
f 74/28/74 151/38/151 79/33/79
f 152/37/152 119/20/119 120/21/120
f 70/53/70 71/32/71 119/66/119
f 152/67/152 70/53/70 119/66/119
f 67/50/67 70/53/70 152/67/152
f 151/44/151 152/37/152 120/21/120
f 153/68/153 67/50/67 152/67/152
f 151/69/151 153/68/153 152/67/152
f 74/28/74 153/36/153 151/38/151
f 72/26/72 153/36/153 74/28/74
f 66/49/66 67/50/67 153/68/153
f 72/26/72 66/35/66 153/36/153
f 9/1/9 66/35/66 72/26/72
f 89/59/89 132/65/132 91/32/91
f 154/60/154 129/31/129 132/34/132
f 89/59/89 154/63/154 132/65/132
f 84/56/84 154/63/154 89/59/89
f 155/61/155 128/30/128 129/31/129
f 80/54/80 81/25/81 128/30/128
f 155/61/155 80/54/80 128/30/128
f 77/31/77 80/34/80 155/60/155
f 154/60/154 155/61/155 129/31/129
f 156/61/156 77/31/77 155/60/155
f 154/63/154 156/62/156 155/64/155
f 84/56/84 156/62/156 154/63/154
f 82/55/82 156/62/156 84/56/84
f 76/30/76 77/31/77 156/61/156
f 82/54/82 76/30/76 156/61/156
f 45/25/45 76/30/76 82/54/82
f 99/2/99 141/35/141 101/1/101
f 157/25/157 138/50/138 141/49/141
f 99/9/99 157/25/157 141/49/141
f 94/10/94 157/25/157 99/9/99
f 158/51/158 137/53/137 138/50/138
f 90/52/90 91/32/91 137/53/137
f 158/51/158 90/52/90 137/53/137
f 87/18/87 90/52/90 158/51/158
f 157/25/157 158/51/158 138/50/138
f 159/48/159 87/18/87 158/51/158
f 157/25/157 159/48/159 158/51/158
f 94/10/94 159/48/159 157/25/157
f 92/13/92 159/48/159 94/10/94
f 86/47/86 87/18/87 159/48/159
f 92/13/92 86/47/86 159/48/159
f 35/15/35 86/47/86 92/13/92
f 59/24/59 147/23/147 61/25/61
f 160/22/160 145/18/145 147/23/147
f 59/24/59 160/22/160 147/23/147
f 54/21/54 160/22/160 59/24/59
f 161/17/161 144/16/144 145/18/145
f 100/3/100 101/1/101 144/16/144
f 161/17/161 100/3/100 144/16/144
f 97/5/97 100/3/100 161/17/161
f 160/22/160 161/17/161 145/18/145
f 162/15/162 97/5/97 161/17/161
f 160/22/160 162/15/162 161/17/161
f 54/21/54 162/15/162 160/22/160
f 52/20/52 162/15/162 54/21/54
f 96/4/96 97/5/97 162/15/162
f 52/20/52 96/4/96 162/15/162
f 25/25/25 96/54/96 52/46/52

